<svg id="Layer_1" enable-background="new 0 0 512 512" height="512" viewBox="0 0 512 512" width="512" xmlns="http://www.w3.org/2000/svg"><g><g><path d="m368 396v-200h-320v200c0 8.837 7.163 16 16 16h288c8.837 0 16-7.163 16-16z" fill="#cd3232"/></g><g><path d="m144 364h-32c-26.51 0-48 21.49-48 48 0 26.51 21.49 48 48 48h32c26.51 0 48-21.49 48-48 0-26.51-21.49-48-48-48z" fill="#32283c"/></g><g><path d="m432 364h-32c-26.51 0-48 21.49-48 48 0 26.51 21.49 48 48 48h32c26.51 0 48-21.49 48-48 0-26.51-21.49-48-48-48z" fill="#32283c"/></g><g><path d="m304 364h-32c-26.51 0-48 21.49-48 48 0 26.51 21.49 48 48 48h32c26.51 0 48-21.49 48-48 0-26.51-21.49-48-48-48z" fill="#32283c"/></g><g><path d="m480 412h-256c-8.837 0-16-7.163-16-16v-80h288v80c0 8.837-7.163 16-16 16z" fill="#a5c3dc"/></g><path d="m328 52h-80c-14.791 0-28.543 4.488-39.992 12.167-11.449-7.679-25.217-12.167-40.008-12.167h-80c-22.056 0-40 17.944-40 40s17.944 40 40 40h48c4.418 0 8-3.582 8-8s-3.582-8-8-8c-13.233 0-24-10.766-24-24 0-11.043 7.536-20.373 17.708-23.158 26.283 4.597 46.292 27.579 46.292 55.158 0 4.418 3.582 8 8 8h48c4.418 0 8-3.582 8-8 0-27.579 20.045-50.55 46.329-55.147 10.171 2.785 17.671 12.104 17.671 23.147 0 13.234-10.767 24-24 24-4.418 0-8 3.582-8 8s3.582 8 8 8h48c22.056 0 40-17.944 40-40s-17.944-40-40-40z" fill="#32283c"/><g><path d="m384 132h-352c-8.837 0-16 7.163-16 16v32c0 8.837 7.163 16 16 16h352c8.837 0 16-7.163 16-16v-32c0-8.837-7.163-16-16-16z" fill="#cd3232"/></g><g><path d="m192 412h-128c-8.837 0-16-7.163-16-16v-200h160v200c0 8.837-7.163 16-16 16z" fill="#ff4646"/></g><g><path d="m208 132h-176c-8.837 0-16 7.163-16 16v32c0 8.837 7.163 16 16 16h176c8.837 0 16-7.163 16-16v-32c0-8.837-7.163-16-16-16z" fill="#ff4646"/></g><g><path d="m48 196h160v40h-160z" fill="#cd3232"/></g><g><path d="m128 180c0 8.837 7.163 16 16 16h-48c-8.837 0-16-7.163-16-16v-32c0-8.837 7.163-16 16-16h48c-8.837 0-16 7.163-16 16z" fill="#463c4b"/></g><g><path d="m288 180c0 8.837-7.163 16-16 16h48c8.837 0 16-7.163 16-16v-32c0-8.837-7.163-16-16-16h-48c8.837 0 16 7.163 16 16z" fill="#32283c"/></g><path d="m280 52h-32c-27.842 0-52.026 15.896-64 39.079-11.974-23.183-36.158-39.079-64-39.079h-32c-22.056 0-40 17.944-40 40s17.944 40 40 40h192c22.056 0 40-17.944 40-40s-17.944-40-40-40zm-192 64c-13.233 0-24-10.766-24-24s10.767-24 24-24h32c28.163 0 51.536 20.897 55.431 48zm192 0h-87.431c3.895-27.103 27.268-48 55.431-48h32c13.233 0 24 10.766 24 24s-10.767 24-24 24z" fill="#463c4b"/><g><path d="m429.004 212h-197.004c-13.255 0-24 10.745-24 24v80h288c0-10.499-2.634-20.83-7.662-30.046l-31.242-57.277c-5.607-10.281-16.382-16.677-28.092-16.677z" fill="#32283c"/></g><g><path d="m269.004 212h-37.004c-13.255 0-24 10.745-24 24v80h128c0-10.499-2.634-20.83-7.662-30.046l-31.242-57.277c-5.607-10.281-16.382-16.677-28.092-16.677z" fill="#463c4b"/></g><g><path d="m320 412h-96c-8.837 0-16-7.163-16-16v-80h128v80c0 8.837-7.163 16-16 16z" fill="#e6e6eb"/></g><g><circle cx="384" cy="372" fill="#e6e6eb" r="16"/></g><g><circle cx="448" cy="372" fill="#e6e6eb" r="16"/></g><g><path d="m461.091 236-3.994-7.323c-5.608-10.28-16.383-16.677-28.093-16.677h-197.004c-13.255 0-24 10.745-24 24z" fill="#a5c3dc"/></g><g><path d="m208 236h93.091l-3.994-7.323c-5.608-10.28-16.383-16.677-28.093-16.677h-37.004c-13.255 0-24 10.745-24 24z" fill="#e6e6eb"/></g><g><circle cx="272" cy="412" fill="#463c4b" r="48"/></g><g><circle cx="272" cy="412" fill="#e6e6eb" r="16"/></g><g><circle cx="112" cy="412" fill="#463c4b" r="48"/></g><g><circle cx="112" cy="412" fill="#e6e6eb" r="16"/></g></g></svg>