<svg height="512" viewBox="0 0 128 128" width="512" xmlns="http://www.w3.org/2000/svg"><path d="m127 61.367a31.9 31.9 0 0 0 -2.968-3.123 15.22 15.22 0 0 0 -6.32-3.6 12.978 12.978 0 0 0 -3.338-.448l-15.989.034a12.977 12.977 0 0 0 -3.336.463 15.22 15.22 0 0 0 -6.3 3.628c-12.112 11.191-12.074 28.954-12.074 28.954l10.412-.022c-.019-9.038 4.042-12.123 4.042-12.123l.026 12.114 20.718-.044a52.073 52.073 0 0 0 9.848-12.056l.031-.055a44.159 44.159 0 0 0 5.248-13.722z" fill="#aad2ff"/><path d="m120 56.916a15.089 15.089 0 0 1 6.106 3.414c-.649-.716-1.337-1.414-2.071-2.087a15.221 15.221 0 0 0 -6.32-3.6 12.972 12.972 0 0 0 -3.338-.448l-15.989.034a12.977 12.977 0 0 0 -3.336.463 15.22 15.22 0 0 0 -6.3 3.628c-12.115 11.192-12.077 28.955-12.077 28.955l2.406-.005c.439-5.15 2.479-17.923 11.95-26.677a15.221 15.221 0 0 1 6.3-3.628 12.982 12.982 0 0 1 3.336-.463l15.989-.034a12.983 12.983 0 0 1 3.344.448z" fill="#bee6ff"/><path d="m112.352 54.196h1.369l2.72 6.799-5.949-2.502-4.092 4.836-.005-2.405z" fill="#d2faff"/><path d="m100.952 54.223h-1.37l-2.691 6.807 5.939-2.537 3.57 4.836-.005-2.405z" fill="#d2faff"/><path d="m100.952 54.223 11.4-.027-5.957 6.728z" fill="#ffb4be"/><path d="m95.475 31.552.022 10.26a10.433 10.433 0 0 0 5.448 9.11l.007 3.3a11.073 11.073 0 0 0 10.987.2l.412-.229-.008-3.581a10.293 10.293 0 0 0 4.867-8.85l-.022-10.26a10.86 10.86 0 0 0 -10.879-10.778h-.275a10.79 10.79 0 0 0 -10.557 10.828z" fill="#ffc8d2"/><path d="m117.188 31.505a10.86 10.86 0 0 0 -10.879-10.778h-.275c-.174 0-.347.006-.519.015a9.757 9.757 0 0 1 9.536 9.707l.02 9.07a9.79 9.79 0 0 1 -19.579.042v2.25a10.433 10.433 0 0 0 5.448 9.11l.007 3.3a11.073 11.073 0 0 0 10.987.2l.412-.229-.008-3.581a10.293 10.293 0 0 0 4.867-8.85l-.022-10.26z" fill="#ffb4be"/><path d="m95.483 35.647c5.428-.012 6.091-6.545 6.091-6.545s-.662 6.533 15.623 6.5l-.013-6.214a8.7 8.7 0 0 0 -8.744-8.663l-4.263.009a8.7 8.7 0 0 0 -8.707 8.7z" fill="#8d7bd4"/><path d="m106.3 20.769a8.7 8.7 0 0 1 8.744 8.663l.013 6.128c.681.025 1.384.042 2.135.04l-.013-6.214a8.7 8.7 0 0 0 -8.744-8.663l-4.263.009c-.281 0-.558.017-.831.044z" fill="#826ec8"/><path d="m108.219 63.329h-3.359l-2.03-4.836h7.662z" fill="#a99be0"/><path d="m104.86 63.329h3.359l2.61 17.552-4.414 4.659-4.435-4.64z" fill="#a99be0"/><path d="m115.327 75.078a2.934 2.934 0 0 1 -2.949-2.91v-4.968h5.873v4.955a2.923 2.923 0 0 1 -2.924 2.923z" fill="#d2faff"/><path d="m39.137 58.244a15.22 15.22 0 0 0 -6.32-3.6 12.979 12.979 0 0 0 -3.338-.448l-15.989.034a12.976 12.976 0 0 0 -3.336.463 15.22 15.22 0 0 0 -6.3 3.628 31.843 31.843 0 0 0 -2.854 3.012c1.935 9.84 7.337 18.745 15.159 25.89l20.694-.044-.026-12.114s4.073 3.067 4.094 12.105l10.412-.022s-.039-17.763-12.196-28.904z" fill="#aad2ff"/><path d="m39.137 58.244a15.222 15.222 0 0 0 -6.32-3.6 12.973 12.973 0 0 0 -3.338-.448l-15.989.034a12.977 12.977 0 0 0 -3.336.463 15.22 15.22 0 0 0 -6.3 3.628 31.843 31.843 0 0 0 -2.854 3.012c.263 1.337.6 2.653.986 3.954a32.3 32.3 0 0 1 4.149-4.694 15.221 15.221 0 0 1 6.3-3.628 12.983 12.983 0 0 1 3.336-.463l15.989-.034a12.982 12.982 0 0 1 3.338.448 15.09 15.09 0 0 1 6.106 3.414c-.645-.715-1.333-1.413-2.067-2.086z" fill="#bee6ff"/><path d="m27.456 54.199 1.37-.003 2.72 6.792-5.95-2.519-4.092 4.838-.005-2.383z" fill="#d2faff"/><path d="m16.056 54.223-1.369.003-2.691 6.804 5.939-2.545 3.569 4.822-.005-2.383z" fill="#d2faff"/><path d="m16.056 54.223 11.4-.024-5.957 6.725z" fill="#ffb4be"/><path d="m10.579 31.552.022 10.26a10.433 10.433 0 0 0 5.448 9.11l.007 3.3a11.073 11.073 0 0 0 10.987.2l.412-.226-.008-3.584a10.293 10.293 0 0 0 4.867-8.85l-.022-10.26a10.86 10.86 0 0 0 -10.878-10.775h-.275a10.79 10.79 0 0 0 -10.557 10.825z" fill="#ffc8d2"/><path d="m32.292 31.505a10.86 10.86 0 0 0 -10.878-10.778h-.275c-.174 0-.347.006-.519.015a9.757 9.757 0 0 1 9.536 9.707l.02 9.07a9.79 9.79 0 0 1 -19.579.042v2.25a10.433 10.433 0 0 0 5.448 9.11l.007 3.3a11.073 11.073 0 0 0 10.987.2l.412-.226-.008-3.584a10.293 10.293 0 0 0 4.867-8.85l-.022-10.26z" fill="#ffb4be"/><path d="m10.588 35.647c5.428-.012 6.091-6.545 6.091-6.545s-.662 6.533 15.623 6.5l-.013-6.214a8.7 8.7 0 0 0 -8.744-8.663l-4.263.009a8.7 8.7 0 0 0 -8.707 8.7z" fill="#8d7bd4"/><path d="m21.409 20.769a8.7 8.7 0 0 1 8.744 8.663l.013 6.128c.681.025 1.384.042 2.135.04l-.013-6.214a8.7 8.7 0 0 0 -8.744-8.663l-4.263.009c-.281 0-.558.017-.831.044z" fill="#826ec8"/><path d="m23.324 63.315-3.36.007-2.029-4.837 7.661-.016z" fill="#a99be0"/><path d="m19.964 63.322 3.36-.007 2.61 17.566-4.415 4.659-4.434-4.64z" fill="#a99be0"/><path d="m30.432 75.078a2.923 2.923 0 0 1 -2.937-2.91l-.011-4.955 5.861-.013.011 4.955a2.923 2.923 0 0 1 -2.924 2.923z" fill="#d2faff"/><path d="m89.03 63.412a21.667 21.667 0 0 0 -9-5.126 18.471 18.471 0 0 0 -4.751-.638l-22.757.052a18.47 18.47 0 0 0 -4.748.658 21.666 21.666 0 0 0 -8.974 5.161c-9.544 8.822-13.783 20.506-15.669 29.181a67.367 67.367 0 0 0 13.626 7.025c1.195-9.03 5.436-12.277 5.436-12.277l.031 14.12a78.6 78.6 0 0 0 43.549 0l-.031-14.216s4.294 3.255 5.506 12.372a67.371 67.371 0 0 0 13.619-7.019c-1.905-8.683-6.188-20.451-15.837-29.293z" fill="#e678a0"/><path d="m89.03 63.412a21.668 21.668 0 0 0 -9-5.126 18.471 18.471 0 0 0 -4.751-.638l-22.757.052a18.471 18.471 0 0 0 -4.748.658 21.666 21.666 0 0 0 -8.974 5.161c-9.544 8.822-13.783 20.506-15.669 29.181 1.13.761 2.3 1.485 3.492 2.183 2-8.552 6.266-19.659 15.43-28.129a21.666 21.666 0 0 1 8.974-5.164 18.476 18.476 0 0 1 4.748-.658l22.761-.049a18.477 18.477 0 0 1 4.751.638 21.48 21.48 0 0 1 8.692 4.86c-.924-1.017-1.904-2.011-2.949-2.969z" fill="#fa8cb4"/><path d="m72.403 57.654 1.949-.004 3.873 9.668-8.47-3.563-5.825 6.864-.007-3.392z" fill="#fba3c3"/><path d="m56.165 57.689-1.94.004-3.83 9.685 8.454-3.623 5.081 6.864-.007-3.392z" fill="#fba3c3"/><path d="m56.165 57.689 16.238-.035-8.48 9.573z" fill="#ffb4be"/><path d="m48.378 25.415.031 14.605a14.852 14.852 0 0 0 7.755 12.968v4.7a15.782 15.782 0 0 0 15.651.287l.587-.322-.011-5.1a14.652 14.652 0 0 0 6.928-12.6l-.031-14.605a15.46 15.46 0 0 0 -15.488-15.341h-.39a15.36 15.36 0 0 0 -15.028 15.408z" fill="#ffc8d2"/><path d="m79.287 25.349a15.46 15.46 0 0 0 -15.487-15.342h-.39c-.248 0-.494.008-.739.021a13.89 13.89 0 0 1 13.574 13.818l.028 12.911a13.936 13.936 0 0 1 -27.871.059l.007 3.2a14.852 14.852 0 0 0 7.755 12.968v4.7a15.782 15.782 0 0 0 15.651.287l.587-.322-.011-5.1a14.652 14.652 0 0 0 6.928-12.6l-.031-14.605z" fill="#ffb4be"/><path d="m48.391 31.245c7.727-.016 8.671-9.316 8.671-9.316s-.943 9.3 22.239 9.25l-.019-8.846a12.39 12.39 0 0 0 -12.448-12.333l-6.068.013a12.39 12.39 0 0 0 -12.394 12.387z" fill="#8d7bd4"/><path d="m63.795 10.066a12.39 12.39 0 0 1 12.447 12.334l.019 8.723c.969.036 1.97.06 3.039.057l-.019-8.846a12.39 12.39 0 0 0 -12.447-12.334l-6.068.013c-.4 0-.794.024-1.184.062z" fill="#826ec8"/><path d="m66.52 70.619h-4.782l-2.889-6.864h10.906z" fill="#8d7bd4"/><path d="m61.738 70.619h4.782l3.715 25.018-6.231 6.729-6.298-6.419z" fill="#8d7bd4"/><path d="m76.639 87.376a4.161 4.161 0 0 1 -4.181-4.142l-.015-7.054 8.343-.018.015 7.054a4.161 4.161 0 0 1 -4.162 4.16z" fill="#fba3c3"/><path d="m58.769 97.025 5.235 5.341v-15.633z" fill="#ffe885"/><path d="m69.04 96.928-5.036 5.438v-15.633z" fill="#f0dc78"/><path d="m69.04 96.928-5.036 5.438 16.52-3.69z" fill="#ffe885"/><path d="m80.524 98.676-16.52 3.69 8.26 4.321z" fill="#dcc864"/><path d="m58.769 97.025 5.235 5.341-16.52-3.69z" fill="#f0dc78"/><path d="m47.484 98.676 16.52 3.69-8.26 4.321z" fill="#dcc864"/><path d="m64.004 102.366-8.26 4.321-1.95 11.313z" fill="#ffe885"/><path d="m53.794 118 10.21-15.634v10.293z" fill="#dcc864"/><path d="m64.004 102.366 8.26 4.321 1.95 11.313z" fill="#f0dc78"/><path d="m74.214 118-10.21-15.634v10.293z" fill="#ffe885"/><path d="m102.054 86.733 4.361 4.562v-13.353z" fill="#ffe885"/><path d="m110.775 86.733-4.36 4.562v-13.353z" fill="#f0dc78"/><path d="m110.775 86.733-4.36 4.562 14.11-3.152z" fill="#ffe885"/><path d="m120.525 88.143-14.11 3.152 7.055 3.69z" fill="#dcc864"/><path d="m102.054 86.733 4.361 4.562-14.11-3.152z" fill="#f0dc78"/><path d="m92.305 88.143 14.11 3.152-7.055 3.69z" fill="#dcc864"/><path d="m106.415 91.295-7.055 3.69-1.666 9.662z" fill="#ffe885"/><path d="m97.694 104.647 8.721-13.352v8.791z" fill="#dcc864"/><path d="m106.415 91.295 7.055 3.69 1.665 9.662z" fill="#f0dc78"/><path d="m115.135 104.647-8.72-13.352v8.791z" fill="#ffe885"/><path d="m17.159 86.673 4.36 4.562v-13.353z" fill="#ffe885"/><path d="m25.892 86.673-4.373 4.562v-13.353z" fill="#f0dc78"/><path d="m25.892 86.673-4.373 4.562 14.11-3.153z" fill="#ffe885"/><path d="m35.629 88.082-14.11 3.153 7.055 3.69z" fill="#dcc864"/><path d="m17.159 86.673 4.36 4.562-14.11-3.153z" fill="#f0dc78"/><path d="m7.409 88.082 14.11 3.153-7.055 3.69z" fill="#dcc864"/><path d="m21.519 91.235-7.055 3.69-1.665 9.662z" fill="#ffe885"/><path d="m12.799 104.587 8.72-13.352v8.79z" fill="#dcc864"/><path d="m21.519 91.235 7.055 3.69 1.666 9.662z" fill="#f0dc78"/><path d="m30.24 104.587-8.721-13.352v8.79z" fill="#ffe885"/><g fill="#785ae6"><path d="m15.787 87.879a1 1 0 0 1 -.68-.267c-7.968-7.39-13.185-16.412-15.088-26.086a1 1 0 0 1 .213-.833 33.007 33.007 0 0 1 2.94-3.108 16.092 16.092 0 0 1 6.728-3.86 13.992 13.992 0 0 1 3.593-.5l2.566-.005a.979.979 0 0 1 .778.37l3.459 4.258a1 1 0 0 1 -.774 1.63h-.08l1.191 2.839h2.059l1.334-2.845h-.35a1 1 0 0 1 -.749-1.663l3.785-4.274a1 1 0 0 1 .747-.337h2.023.018a14.007 14.007 0 0 1 3.568.481 16.1 16.1 0 0 1 6.74 3.831 32.573 32.573 0 0 1 2.815 2.935 1 1 0 0 1 -.206 1.479 24.093 24.093 0 0 0 -2.944 2.333 50.586 50.586 0 0 0 -13.338 21.331 1 1 0 0 1 -1.843.125l-2.772-5.582-3.464 6.986a1 1 0 0 1 -.747.544l-1.372.207a1.024 1.024 0 0 1 -.15.011zm-13.711-26.271a46.526 46.526 0 0 0 14.041 24.21l.378-.057 4.128-8.324a1 1 0 0 1 .9-.556 1 1 0 0 1 .9.555l2.624 5.282a51.661 51.661 0 0 1 13.074-19.933 26.723 26.723 0 0 1 2.259-1.872c-.628-.692-1.262-1.33-1.919-1.932a14.117 14.117 0 0 0 -5.9-3.372 12.007 12.007 0 0 0 -3.057-.415h-.023-1.574l-2.043 2.308a1 1 0 0 1 .638 1.388l-2.273 4.85a1 1 0 0 1 -.9.576l-3.359.007a1 1 0 0 1 -.922-.613l-2.03-4.837a1 1 0 0 1 .486-1.287l-1.917-2.361h-2.089a11.956 11.956 0 0 0 -3.078.428 14.119 14.119 0 0 0 -5.885 3.4 30.284 30.284 0 0 0 -2.459 2.555z"/><path d="m31.546 61.988a1 1 0 0 1 -.39-.079l-5.762-2.439h-1.721a1 1 0 0 1 -.749-1.663l3.785-4.274a1 1 0 0 1 .747-.337h1.37a1 1 0 0 1 .928.628l2.72 6.792a1 1 0 0 1 -.928 1.372zm-5.682-4.482a.9.9 0 0 1 .122.042l3.739 1.583-1.576-3.931h-.242z"/><path d="m12 62.03a1 1 0 0 1 -.93-1.368l2.691-6.8a1 1 0 0 1 .928-.632h1.37a.979.979 0 0 1 .778.37l3.459 4.258a1 1 0 0 1 -.774 1.63h-1.377l-5.75 2.464a1 1 0 0 1 -.395.078zm3.372-6.805-1.559 3.94 3.687-1.581-1.917-2.36z"/><path d="m19.516 59.481a1 1 0 0 1 -.776-.37l-3.46-4.257a1 1 0 0 1 -.224-.628l-.005-2.726a11.368 11.368 0 0 1 -5.451-9.687l-.013-6.165a1 1 0 0 1 1-1c4.475-.009 5.075-5.415 5.1-5.645a1 1 0 0 1 2 .1v.1a3.055 3.055 0 0 0 .992 2.049c1.45 1.53 4.97 3.348 13.5 3.348a.336.336 0 0 0 .133 0 1 1 0 0 1 1 1l.013 6.163a11.287 11.287 0 0 1 -4.866 9.4l.007 3.035a1 1 0 0 1 -.251.665l-3.785 4.274a1 1 0 0 1 -.747.337l-4.155.009zm-2.46-5.614 2.935 3.613 3.229-.007 3.235-3.653-.007-3.2a1 1 0 0 1 .484-.858 9.249 9.249 0 0 0 4.383-7.987l-.015-5.181c-7.062-.1-11.834-1.474-14.2-4.081-.089-.1-.172-.2-.251-.293a6.86 6.86 0 0 1 -5.268 4.356l.019 5.234a9.5 9.5 0 0 0 4.923 8.232 1 1 0 0 1 .525.877z"/><path d="m10.588 36.646a1 1 0 0 1 -1-1l-.013-6.166a1 1 0 0 1 1-1 1 1 0 0 1 1 1l.011 5.068c3.568-.739 4.077-5.333 4.1-5.545a1 1 0 0 1 2 .1v.1a3.055 3.055 0 0 0 .992 2.05c1.4 1.477 4.728 3.222 12.633 3.341l-.011-5.206a7.713 7.713 0 0 0 -7.725-7.666h-.017l-4.263.009a7.662 7.662 0 0 0 -4.855 1.724 1 1 0 0 1 -1.271-1.555 9.776 9.776 0 0 1 6.11-2.169l4.263-.009h.021a9.715 9.715 0 0 1 9.725 9.662l.012 6.216a1 1 0 0 1 -.292.708 1.155 1.155 0 0 1 -.841.294c-7.539 0-12.6-1.375-15.061-4.086-.089-.1-.172-.2-.251-.293a6.737 6.737 0 0 1 -6.268 4.426z"/><path d="m19.964 64.322a1 1 0 0 1 -.922-.613l-2.029-4.837a1 1 0 0 1 .92-1.387l7.661-.016a1 1 0 0 1 .906 1.424l-2.271 4.847a1 1 0 0 1 -.9.576l-3.359.007zm-.527-4.84 1.191 2.839h2.059l1.334-2.845z"/><path d="m19.019 83.924a1 1 0 0 1 -.723-.309l-1.934-2.023a1 1 0 0 1 -.264-.853l2.879-17.578a1 1 0 0 1 .985-.838l3.359-.007a1 1 0 0 1 .989.853l2.61 17.566a1 1 0 0 1 -.263.835l-1.917 2.022a1 1 0 0 1 -1.622-.243l-1.6-3.219-1.606 3.238a1 1 0 0 1 -.746.544 1.044 1.044 0 0 1 -.147.012zm-.866-3.354.6.632 1.867-3.765a1 1 0 0 1 .9-.556 1 1 0 0 1 .9.555l1.861 3.741.6-.631-2.42-16.229h-1.647z"/><path d="m29.775 76a.979.979 0 0 1 -.221-.025 3.9 3.9 0 0 1 -3.059-3.8l-.011-4.955a1 1 0 0 1 1-1l5.861-.013a1 1 0 0 1 1 1l.005 2.369a1 1 0 0 1 -.2.605 49.694 49.694 0 0 0 -3.5 5.323 1 1 0 0 1 -.875.496zm-1.289-7.789.009 3.955a1.9 1.9 0 0 0 .851 1.582 51.781 51.781 0 0 1 3-4.511v-1.035z"/><path d="m112.156 87.933a1.012 1.012 0 0 1 -.143-.01l-1.381-.2a1 1 0 0 1 -.753-.545l-3.464-6.984-2.734 5.506a1 1 0 0 1 -1.842-.122 50.748 50.748 0 0 0 -13.485-21.429 24.206 24.206 0 0 0 -2.816-2.224 1 1 0 0 1 -.2-1.477 32.633 32.633 0 0 1 2.732-2.864 16.091 16.091 0 0 1 6.723-3.859 13.96 13.96 0 0 1 3.593-.5l2.568-.005a1 1 0 0 1 .777.371l3.158 3.9h3.225l3.487-3.958a1 1 0 0 1 .75-.339h2.05a14 14 0 0 1 3.566.481 16.1 16.1 0 0 1 6.74 3.831 33.15 33.15 0 0 1 3.061 3.221 1 1 0 0 1 .212.833 43.994 43.994 0 0 1 -2.072 7.178 1 1 0 0 1 -1.868-.715 41.993 41.993 0 0 0 1.882-6.382 30.9 30.9 0 0 0 -2.567-2.661 14.117 14.117 0 0 0 -5.9-3.372 12.007 12.007 0 0 0 -3.057-.415h-1.6l-3.488 3.959a1 1 0 0 1 -.75.339h-4.154a1 1 0 0 1 -.777-.371l-3.157-3.9h-2.09a11.965 11.965 0 0 0 -3.077.428 14.112 14.112 0 0 0 -5.886 3.4c-.63.583-1.239 1.2-1.844 1.867a26.546 26.546 0 0 1 2.125 1.754 51.784 51.784 0 0 1 13.23 20.047l2.588-5.218a1.042 1.042 0 0 1 1.792 0l4.127 8.32.386.056a50.838 50.838 0 0 0 8.926-11.058 1 1 0 0 1 1.722 1.019 53.014 53.014 0 0 1 -9.636 11.831 1 1 0 0 1 -.679.267z"/><path d="m116.438 62a1 1 0 0 1 -.388-.078l-5.762-2.424h-1.724a1 1 0 0 1 -.75-1.661l3.786-4.3a1 1 0 0 1 .75-.339h1.368a1 1 0 0 1 .929.629l2.719 6.8a1 1 0 0 1 -.928 1.373zm-5.689-4.468a.984.984 0 0 1 .129.044l3.744 1.575-1.58-3.951h-.242z"/><path d="m96.895 62.037a1 1 0 0 1 -.93-1.367l2.688-6.814a1 1 0 0 1 .93-.633h1.371a1 1 0 0 1 .777.371l3.458 4.27a1 1 0 0 1 -.777 1.629h-1.375l-5.748 2.463a1 1 0 0 1 -.394.081zm3.369-6.814-1.564 3.95 3.69-1.581-1.918-2.369z"/><path d="m108.565 59.493h-4.154a1 1 0 0 1 -.777-.371l-3.458-4.27a1 1 0 0 1 -.223-.627l-.006-2.714a11.364 11.364 0 0 1 -5.447-9.684l-.014-6.163a1 1 0 0 1 1-1c4.474-.01 5.073-5.414 5.1-5.644a1 1 0 0 1 2 .1v.1a3.054 3.054 0 0 0 .992 2.048c1.449 1.529 4.968 3.347 13.5 3.347h.131a1 1 0 0 1 1 1l.014 6.162a11.285 11.285 0 0 1 -4.864 9.4l.008 3.021a1 1 0 0 1 -.25.664l-3.786 4.3a1 1 0 0 1 -.766.331zm-3.677-2h3.225l3.237-3.674-.008-3.191a1 1 0 0 1 .484-.859 9.246 9.246 0 0 0 4.381-7.984l-.007-5.175c-7.06-.1-11.831-1.474-14.191-4.08q-.133-.147-.25-.293a6.857 6.857 0 0 1 -5.266 4.354l.012 5.231a9.492 9.492 0 0 0 4.921 8.229 1 1 0 0 1 .525.878l.006 2.938z"/><path d="m95.487 36.662a1 1 0 0 1 -1-1l-.013-6.212a9.7 9.7 0 0 1 9.7-9.7l4.261-.009h.021a9.712 9.712 0 0 1 9.723 9.659l.013 6.212a1 1 0 0 1 -1 1h-.133c-7.537 0-12.6-1.374-15.058-4.085q-.133-.147-.25-.293a6.736 6.736 0 0 1 -6.266 4.425zm7.084-7.441a3.054 3.054 0 0 0 .992 2.048c1.4 1.476 4.726 3.221 12.629 3.34l-.011-5.2a7.71 7.71 0 0 0 -7.723-7.663h-.017l-4.261.009a7.694 7.694 0 0 0 -5.458 2.263 7.606 7.606 0 0 0 -2.249 5.433l.011 5.114c3.566-.74 4.075-5.332 4.1-5.543a1 1 0 0 1 2 .1c-.008.03-.009.064-.013.099z"/><path d="m108.219 64.329h-3.359a1 1 0 0 1 -.922-.613l-2.029-4.836a1 1 0 0 1 .922-1.387h7.659a1 1 0 0 1 .905 1.425l-2.271 4.836a1 1 0 0 1 -.905.575zm-2.694-2h2.059l1.332-2.836h-4.581z"/><path d="m103.934 83.944a1 1 0 0 1 -.723-.309l-1.952-2.042a1 1 0 0 1 -.259-.853l2.878-17.573a1 1 0 0 1 .987-.838h3.359a1 1 0 0 1 .989.853l2.608 17.554a1 1 0 0 1 -.263.834l-1.939 2.047a1 1 0 0 1 -1.622-.243l-1.578-3.181-1.585 3.2a1 1 0 0 1 -.746.544 1.039 1.039 0 0 1 -.154.007zm-.884-3.373.622.651 1.847-3.724a1.042 1.042 0 0 1 1.792 0l1.837 3.7.619-.654-2.41-16.219h-1.647z"/><path d="m115.318 76.082a3.932 3.932 0 0 1 -3.94-3.907v-4.975a1 1 0 0 1 1-1h5.874a1 1 0 0 1 1 1v4.96a3.925 3.925 0 0 1 -3.925 3.921zm-1.94-7.881v3.972a1.93 1.93 0 0 0 1.94 1.909 1.929 1.929 0 0 0 1.367-.566 1.9 1.9 0 0 0 .562-1.354v-3.962z"/><path d="m75.179 104.859a1 1 0 0 1 -.7-1.718l3.9-3.78-9.492-1.444a1 1 0 0 1 -.746-.546l-4.152-8.407-4.329 8.515a1 1 0 0 1 -.747.536l-9.285 1.358 3.856 3.766a1 1 0 0 1 -.84 1.705 77.221 77.221 0 0 1 -10.7-2.314 1 1 0 0 1 -.719-.958l-.025-11.472a21.956 21.956 0 0 0 -3.45 9.761 1 1 0 0 1 -1.348.8 70.53 70.53 0 0 1 -8.112-3.717 1 1 0 0 1 -.515-.72l-.186-1.137a1 1 0 0 1 .291-.879l5.595-5.427-7.724-1.118a1 1 0 0 1 -.751-.542l-.7-1.405a1 1 0 0 1 -.053-.769 52.619 52.619 0 0 1 13.874-22.162 22.492 22.492 0 0 1 9.393-5.4 19.487 19.487 0 0 1 5.006-.692l3.643-.008a1 1 0 0 1 .776.369l4.634 5.7h4.988l5.09-5.764a1 1 0 0 1 .748-.338l2.88-.006h.037a19.5 19.5 0 0 1 4.972.671 22.5 22.5 0 0 1 9.417 5.355 52.729 52.729 0 0 1 14.027 22.26 1 1 0 0 1 -.05.767l-.732 1.476a1 1 0 0 1 -.753.545l-7.736 1.119 5.595 5.426a1 1 0 0 1 .289.888l-.194 1.123a1 1 0 0 1 -.515.712 70.506 70.506 0 0 1 -8.033 3.672 1 1 0 0 1 -1.348-.8 21.928 21.928 0 0 0 -3.509-9.883l.025 11.594a1 1 0 0 1 -.719.962 75.349 75.349 0 0 1 -10.733 2.317 1.046 1.046 0 0 1 -.14.009zm-5.474-8.841 10.969 1.669a1 1 0 0 1 .546 1.707l-3.06 2.968c2.222-.41 4.408-.92 6.61-1.541l-.029-13.462a1 1 0 0 1 1.6-.8c.18.137 4.242 3.3 5.7 11.78 2.073-.837 4.158-1.805 6.217-2.886l.021-.118-6.671-6.475a1 1 0 0 1 .553-1.708l9.23-1.334.313-.631a50.584 50.584 0 0 0 -13.35-21.038 20.522 20.522 0 0 0 -8.576-4.9 17.494 17.494 0 0 0 -4.461-.6h-.033-2.43l-5.091 5.765a1 1 0 0 1 -.75.338h-5.913a1 1 0 0 1 -.776-.369l-4.633-5.7-3.166.007a17.47 17.47 0 0 0 -4.491.624 20.522 20.522 0 0 0 -8.555 4.933 50.474 50.474 0 0 0 -13.209 20.947l.283.563 9.22 1.335a1 1 0 0 1 .553 1.708l-6.68 6.479.022.132a68.963 68.963 0 0 0 6.289 2.926c1.442-8.389 5.45-11.546 5.628-11.683a1 1 0 0 1 1.608.792l.029 13.368c2.157.607 4.363 1.122 6.6 1.536l-3.032-2.96a1 1 0 0 1 .554-1.7l10.773-1.576 5-9.831a.955.955 0 0 1 .9-.547 1 1 0 0 1 .891.557z"/><path d="m78.225 68.318a1 1 0 0 1 -.388-.078l-8.284-3.485h-2.539a1 1 0 0 1 -.75-1.662l5.389-6.1a1 1 0 0 1 .748-.338h1.95a1 1 0 0 1 .928.628l3.872 9.668a1 1 0 0 1 -.928 1.372zm-8.993-5.563h.523a1 1 0 0 1 .388.078l6.264 2.635-2.73-6.817h-.822z"/><path d="m50.395 68.377a1 1 0 0 1 -.93-1.368l3.835-9.684a1 1 0 0 1 .927-.632h1.939a1 1 0 0 1 .776.369l4.934 6.067a1 1 0 0 1 -.776 1.631h-2.046l-8.265 3.54a1 1 0 0 1 -.394.077zm4.512-9.686-2.7 6.821 6.248-2.677a1 1 0 0 1 .394-.081h.151l-3.31-4.065z"/><path d="m67.014 64.755h-5.914a1 1 0 0 1 -.776-.369l-4.934-6.067a1 1 0 0 1 -.224-.631v-4.116a15.76 15.76 0 0 1 -7.755-13.55l-.011-2.687a1 1 0 0 1 1-1 1 1 0 0 1 1 1l.006 2.688a13.763 13.763 0 0 0 7.23 12.09 1 1 0 0 1 .525.88v4.344l4.41 5.422h4.988l4.841-5.483-.01-4.721a1 1 0 0 1 .484-.859 13.591 13.591 0 0 0 6.444-11.735l-.018-7.786c-10.159-.1-16.991-2-20.316-5.675a8.547 8.547 0 0 1 -.776-.992c-1.237 3.257-3.9 6.725-8.818 6.736a1 1 0 1 1 0-2 6.841 6.841 0 0 0 6.347-4.123 13.541 13.541 0 0 0 1.331-4.294 1 1 0 0 1 2 .1v.1a4.656 4.656 0 0 0 1.488 3.21c2.117 2.268 7.243 4.957 19.754 4.939a1 1 0 0 1 1 1l.019 8.776a15.628 15.628 0 0 1 -6.936 13.148l.01 4.547a1 1 0 0 1 -.25.665l-5.389 6.1a1 1 0 0 1 -.75.343z"/><path d="m48.391 32.245a1 1 0 0 1 -1-1l-.019-8.845a13.389 13.389 0 0 1 13.392-13.387l6.068-.013h.029a13.4 13.4 0 0 1 13.42 13.331l.019 8.846a1 1 0 0 1 -.292.708 1.228 1.228 0 0 1 -.9.294c-10.607 0-17.714-1.91-21.127-5.678a8.547 8.547 0 0 1 -.776-.992c-1.237 3.257-3.9 6.725-8.818 6.736zm18.47-21.245h-.025l-6.068.013a11.376 11.376 0 0 0 -8.07 3.346 11.255 11.255 0 0 0 -3.326 8.041l.017 7.784a6.9 6.9 0 0 0 5.347-4.059 13.531 13.531 0 0 0 1.331-4.294 1 1 0 0 1 2 .1v.1a4.656 4.656 0 0 0 1.488 3.21c2.06 2.206 6.987 4.819 18.754 4.935l-.017-7.84a11.4 11.4 0 0 0 -11.431-11.336z"/><path d="m66.52 71.619h-4.782a1 1 0 0 1 -.922-.612l-2.889-6.864a1 1 0 0 1 .922-1.388h10.906a1 1 0 0 1 .9 1.426l-3.235 6.864a1 1 0 0 1 -.9.574zm-4.118-2h3.483l2.292-4.864h-7.822z"/><path d="m58.769 98.025a1 1 0 0 1 -.712-.3l-1.063-1.078a1 1 0 0 1 -.276-.859l1.859-11.679a1 1 0 0 1 1.976.314l-1.6 10.025 4.156-8.171a.955.955 0 0 1 .9-.547 1 1 0 0 1 .891.557l4.2 8.5-3.44-23.169h-3.068l-.832 5.222a1 1 0 1 1 -1.976-.314l.966-6.064a1 1 0 0 1 .988-.843h4.782a1 1 0 0 1 .989.853l3.716 25.018a1 1 0 0 1 -.255.826l-1.2 1.291a1 1 0 0 1 -1.63-.236l-4.153-8.407-4.327 8.515a1 1 0 0 1 -.738.535 1.018 1.018 0 0 1 -.153.011z"/><path d="m76.629 88.376a5.167 5.167 0 0 1 -5.171-5.14l-.015-7.054a1 1 0 0 1 1-1l8.343-.018a1 1 0 0 1 1 1l.015 7.054a5.161 5.161 0 0 1 -5.161 5.162zm.007-2v1-1a3.164 3.164 0 0 0 2.242-.929 3.12 3.12 0 0 0 .922-2.229l-.013-6.054-6.343.014.013 6.054a3.165 3.165 0 0 0 3.172 3.144z"/><path d="m74.239 119a1 1 0 0 1 -.984-.828l-1.976-11.312a1 1 0 0 1 .289-.89l6.813-6.608-9.492-1.444a1 1 0 0 1 -.746-.546l-4.152-8.407-4.331 8.514a1 1 0 0 1 -.747.536l-9.276 1.357 6.8 6.6a1 1 0 0 1 .289.888l-1.606 9.319 8.417-4.4a1 1 0 0 1 .926 0l4.1 2.142a1 1 0 1 1 -.925 1.773l-3.638-1.906-9.747 5.1a1 1 0 0 1 -1.449-1.056l1.86-10.792-7.881-7.644a1 1 0 0 1 .552-1.707l10.773-1.576 5-9.831a.955.955 0 0 1 .9-.547 1 1 0 0 1 .891.557l4.8 9.728 10.969 1.669a1 1 0 0 1 .546 1.707l-7.88 7.643 1.885 10.792a1 1 0 0 1 -.98 1.169z"/><path d="m97.694 105.647a1 1 0 0 1 -.985-1.17l1.576-9.142-6.677-6.475a1 1 0 0 1 .553-1.708l9.23-1.334 4.126-8.32a1.042 1.042 0 0 1 1.792 0l4.127 8.32 9.23 1.334a1 1 0 0 1 .553 1.708l-6.676 6.475 1.576 9.142a1 1 0 0 1 -1.449 1.056l-8.257-4.32-8.257 4.32a1 1 0 0 1 -.462.114zm8.72-6.562a1 1 0 0 1 .463.114l6.928 3.625-1.322-7.668a1 1 0 0 1 .289-.888l5.594-5.426-7.736-1.119a1 1 0 0 1 -.753-.545l-3.464-6.984-3.464 6.984a1 1 0 0 1 -.753.545l-7.736 1.119 5.595 5.426a1 1 0 0 1 .289.888l-1.322 7.668 6.928-3.625a1 1 0 0 1 .465-.114z"/><path d="m30.24 105.587a1 1 0 0 1 -.463-.114l-8.257-4.319-8.257 4.319a1 1 0 0 1 -1.449-1.056l1.576-9.142-6.677-6.475a1 1 0 0 1 .553-1.708l9.23-1.334 4.126-8.321a1 1 0 0 1 .9-.556 1 1 0 0 1 .9.555l4.14 8.322 9.218 1.334a1 1 0 0 1 .553 1.708l-6.676 6.475 1.576 9.142a1 1 0 0 1 -.985 1.17zm-8.721-6.562a1 1 0 0 1 .463.114l6.928 3.624-1.321-7.663a1 1 0 0 1 .289-.888l5.595-5.427-7.724-1.118a1 1 0 0 1 -.749-.549l-3.479-6.988-3.465 6.987a1 1 0 0 1 -.753.545l-7.737 1.119 5.595 5.426a1 1 0 0 1 .289.888l-1.322 7.668 6.928-3.624a1 1 0 0 1 .463-.114z"/></g></svg>