<svg id="Capa_1" enable-background="new 0 0 512 512" height="512" viewBox="0 0 512 512" width="512" xmlns="http://www.w3.org/2000/svg"><g><g><g><g><g><g><g><circle cx="256" cy="256" fill="#7982ed" r="256"/></g></g></g></g></g></g><path d="m512 256c0-31.708-5.765-62.069-16.303-90.094l-71.935-71.935-333.569 119.892 94.242 94.242-37.549 34.981 41.323 41.324-80.88 24.239 98.421 98.421c16.248 3.234 33.051 4.93 50.25 4.93 141.385 0 256-114.615 256-256z" fill="#4d56b2"/><g><g><g><circle cx="343.918" cy="320.303" fill="#bec2d0" r="31.125"/></g><g><path d="m343.918 360.149c-29.662 0-54.479 20.735-60.753 48.5h121.506c-6.275-27.765-31.091-48.5-60.753-48.5z" fill="#bec2d0"/></g></g><g><g><circle cx="168.082" cy="320.303" fill="#dce0ea" r="31.125"/></g><g><path d="m168.082 360.149c-29.662 0-54.479 20.735-60.753 48.5h121.506c-6.274-27.765-31.091-48.5-60.753-48.5z" fill="#dce0ea"/></g></g></g><g><g><circle cx="256" cy="316.218" fill="#fff" r="42.091"/></g><g><path d="m256 274.127v84.182c23.246 0 42.091-18.845 42.091-42.091s-18.845-42.091-42.091-42.091z" fill="#e9ecf4"/></g><g><path d="m256 370.102c-40.112 0-73.672 28.04-82.157 65.587h164.313c-8.484-37.547-42.044-65.587-82.156-65.587z" fill="#fff"/></g><g><path d="m256 370.103v65.587h82.157c-8.485-37.547-42.045-65.587-82.157-65.587z" fill="#e9ecf4"/></g></g><g><path d="m423.762 93.972h-333.569v119.891h52.846l25.043 48.137 25.043-48.137h38.809l24.066 47.116 26.021-47.116h36.853l25.044 48.137 25.043-48.137h54.801z" fill="#f1cc30"/></g><g><path d="m256 93.972v167.007l26.021-47.116h36.853l25.044 48.137 25.043-48.137h54.801v-119.891z" fill="#ecb931"/></g><g><path d="m256 108.281 13.926 29.045 31.138 4.658-22.532 22.608 5.319 31.924-27.851-15.073-27.851 15.073 5.319-31.924-22.532-22.608 31.138-4.658z" fill="#fff"/></g><g><path d="m301.064 141.984-31.138-4.658-13.926-29.045v73.162l27.851 15.073-5.319-31.924z" fill="#e9ecf4"/></g><g><g><path d="m361.982 108.281 13.925 29.045 31.139 4.658-22.532 22.608 5.319 31.924-27.851-15.073-27.852 15.073 5.32-31.924-22.533-22.608 31.139-4.658z" fill="#e9ecf4"/></g><g><path d="m150.018 108.281 13.926 29.045 31.139 4.658-22.533 22.608 5.32 31.924-27.852-15.073-27.851 15.073 5.319-31.924-22.532-22.608 31.139-4.658z" fill="#fff"/></g></g></g></svg>